# This file uses centimeters as units for non-parametric coordinates.

mtllib nub.mtl
g default
v 0.477288 0.063688 1.184916
v 0.743657 0.296900 0.820434
v 0.348194 0.566078 1.018784
v 0.235762 0.579475 1.319763
v 1.020087 0.158583 0.478068
v 0.935120 0.493076 0.237853
v 0.100302 0.991982 0.408943
v -0.192223 0.957485 0.488825
v -0.868444 0.507028 0.593515
v -0.674441 0.734031 0.569646
v -0.619423 0.657487 0.836218
v -0.390229 0.767880 0.780228
v -0.133908 0.812999 0.733110
v 0.165440 0.801492 0.690141
v -0.579874 0.653774 1.093297
v -0.364281 0.754852 1.031997
v -0.128125 0.750272 0.992621
v -0.333913 0.748602 1.243337
v -0.166626 0.747619 1.413126
v 0.062699 0.704007 1.252608
v -0.771565 0.901428 -0.948754
v -0.858788 0.656599 -0.757929
v -0.901263 0.914083 -0.803568
v -0.847960 1.170017 -0.805236
v -0.945272 0.667000 -0.573598
v -0.951762 0.924852 -0.608302
v -0.917896 1.155748 -0.611470
v -0.976673 0.411792 -0.297975
v -0.005338 -0.971595 -0.408524
v 0.398113 -0.932980 -0.146778
v 0.527550 -0.896039 0.190145
v 0.689218 -0.953035 -0.272539
v -0.371476 -1.036474 -0.394025
v -0.333847 -1.048016 -0.001925
v -0.296571 -0.964070 0.381738
v 0.152558 -1.014325 0.324360
v 0.632332 -0.899971 -0.543554
v 0.447105 0.418662 -0.883808
v 0.615432 0.608497 -0.616799
v 0.361275 0.856712 -0.675271
v 0.205608 0.176606 1.661133
v 0.344465 0.373746 1.400072
v 0.213662 0.396780 1.645554
v -0.953187 0.927835 -0.413905
v -0.957662 0.693180 -0.389874
v 1.193862 -0.375381 0.230255
v 1.083773 -0.292632 -1.124732
v 1.053639 -0.613721 -1.086854
v 0.969298 -0.863866 -0.874331
v -0.892129 1.137123 -0.411645
v -0.917663 0.884569 -0.231073
v 1.404552 -0.513260 -0.093408
v 1.463455 -0.208563 -0.199169
v 1.264606 -0.025293 0.134457
v 1.389742 0.044614 -0.366424
v 1.244600 -0.012826 -0.890384
v 0.670094 -0.493285 -0.979270
v -0.954428 -0.333289 0.307643
v -0.891088 -0.258268 0.669761
v -0.829311 -0.193592 1.001940
v -0.680254 -0.715524 0.369173
v -0.624037 -0.595959 0.725163
v -0.556915 -0.437659 1.020174
v -0.518521 -0.327838 1.301217
v -0.463863 -0.205763 1.530934
v -0.780636 1.309727 -0.427568
v -0.834235 1.081204 -0.208541
v -0.679277 1.234580 -0.219960
v -0.498715 1.342323 -0.271972
v -0.894545 0.760195 -0.014475
v -0.775377 0.980371 0.027998
v -0.600475 1.144677 0.023751
v -0.390238 1.249199 -0.026754
v -0.893983 0.602076 0.271180
v -0.718872 0.842209 0.287954
v -0.520603 1.015717 0.282804
v -0.284898 1.132705 0.243115
v -0.019629 1.181202 0.142666
v 1.054884 -0.948889 -0.229258
v 0.424821 0.930524 0.223337
v 0.215070 1.116324 -0.055043
v 0.018137 1.240451 -0.277858
v -0.174508 1.283716 -0.124737
v -0.137300 1.312438 -0.482498
v -0.304247 1.363829 -0.370584
v -0.606509 1.380141 -0.504906
v 0.924042 -0.973616 -0.585856
v 1.194648 -0.942003 -0.479991
v -0.066886 -0.819271 -0.698493
v 0.274886 -0.705017 -0.733011
v 0.624273 -0.753108 -0.807511
v -0.366694 -0.214496 -0.893378
v -0.507336 0.114100 -0.875129
v -0.631919 0.411271 -0.895110
v -0.725246 0.669421 -0.922628
v -0.749775 0.031541 -0.700617
v -0.816965 0.362658 -0.730770
v -0.955636 -0.001380 -0.476911
v -0.938560 0.364641 -0.522451
v 0.003820 0.452172 -1.083517
v -0.205287 0.684798 -1.103324
v 0.000393 0.882216 -0.964441
v -0.383760 0.887471 -1.077062
v -0.199838 1.064729 -0.963693
v -0.077767 1.185656 -0.759701
v 0.847429 0.336940 -0.642297
v 0.674477 0.185672 -0.869217
v 0.490226 -0.049418 -1.015563
v 1.059030 0.140160 -0.758769
v 0.902516 0.018921 -0.932413
v 1.202017 0.261016 -0.078682
v -0.518976 -0.673372 -0.707599
v -0.203448 -0.556356 -0.881995
v -0.900876 -0.414856 -0.436508
v -0.654369 -0.329386 -0.701671
v -0.520082 0.672647 1.320548
v -0.815989 0.463217 0.897048
v -0.755774 0.468619 1.168978
v -0.659972 0.500570 1.421959
v -1.006757 0.162347 0.617583
v -0.935957 0.155429 0.959810
v -0.826101 0.189674 1.241524
v -0.700583 0.248124 1.488475
v -0.739964 -0.105295 1.283086
v -0.636915 -0.012230 1.524862
v -0.252901 0.121405 1.780872
v -0.271903 0.345464 1.770283
v -0.273994 0.553303 1.703015
v -0.014233 0.386125 1.783049
v -0.537203 1.041552 -1.017363
v -0.388928 1.205991 -0.916917
v -0.259962 1.287686 -0.702485
v -0.694891 1.117210 -0.922479
v -0.563361 1.283348 -0.814511
v -0.713910 1.326089 -0.702667
v 0.670835 -0.059893 0.893401
v 0.931989 -0.230850 0.578393
v -0.256193 -0.824951 0.775532
v -0.217667 -0.565405 1.023621
v -0.218221 -0.420033 1.305134
v 0.212962 -0.863479 0.738369
v 0.142009 -0.535674 0.989312
v -0.237125 0.695630 1.571121
v -0.046245 0.584120 1.706303
v 0.125434 0.590032 1.549699
v 0.003419 0.718013 1.462208
v -0.218079 -0.280767 1.551323
v 0.086344 -0.359489 1.276306
v 0.046447 -0.228340 1.530241
v -1.040330 0.043088 -0.166908
v -0.986075 -0.411474 -0.068038
v -0.705047 -0.799412 -0.409718
v -0.727425 -0.799832 -0.011715
v -0.008148 0.156410 1.770767
v 1.310819 -0.830902 -0.722825
v 1.406737 -0.568394 -0.908705
v 1.398036 -0.243614 -0.958646
v 0.349059 0.137480 1.451378
v 0.487872 0.337302 1.119285
v -0.446252 0.872486 0.533217
v 0.114822 0.693186 0.982270
v -0.138021 0.753421 1.225959
v 0.056248 -1.004822 -0.058685
v 0.320558 -0.865416 -0.456334
v 0.232077 0.193316 -1.055145
v 0.222164 0.666309 -0.933864
v 0.119897 1.041114 -0.734600
v 0.369328 1.003991 -0.345039
v 0.129531 1.152713 -0.483113
v -0.059565 -0.046977 -1.052943
v -0.262322 0.249604 -1.031947
v -0.437201 0.507943 -1.051494
v -0.565302 0.737682 -1.053827
v 1.225280 0.157101 -0.560456
v 1.042754 0.404359 -0.376963
v 1.459776 -0.655510 -0.431687
v 1.529140 -0.396410 -0.556817
v 1.480275 -0.130858 -0.663472
v -0.958201 0.536197 -0.110834
v 1.033426 -0.717133 0.194985
v 1.248512 -0.785290 -0.095591
v -0.429072 1.365110 -0.608263
v -0.393851 0.672785 1.478214
v -0.483328 0.527692 1.598166
v -0.509200 0.307495 1.672665
v -0.469126 0.079255 1.687626
v 0.464103 -0.357794 0.931909
v 0.321477 -0.178694 1.220014
v 0.251924 -0.085824 1.482037
v 0.003299 -0.057788 1.699152
v -0.215976 -0.088102 1.698752
v 0.780499 -0.207708 -1.034180
v 0.833541 -0.909421 -0.013478
v -0.941438 0.715732 -0.254271
v 0.574473 0.665042 0.615275
v -1.024380 0.198816 0.192757
v 1.330916 -0.815925 -0.337283
v 0.172579 0.000244 1.642601
v 0.233622 -0.404334 -1.002351
v 0.717674 0.737754 -0.169662
v 0.696023 -0.667207 0.584712
v -0.808892 1.276046 -0.586194
v -0.336033 -0.886092 -0.635029
v -0.029240 1.228282 -0.574675
v -0.398891 -0.095448 1.686931
v -0.632945 0.895717 -1.016940
v 1.339899 0.016956 -0.714906
v 1.088259 -0.080437 -1.003423
v -0.090271 0.689200 1.596949
v 0.891366 -0.978774 -0.365083
v -0.303144 0.746099 1.383358
vn 0.814991 -0.165514 0.555333
vn 0.870735 -0.112888 0.478620
vn 0.704996 -0.508517 0.494359
vn 0.659357 -0.524852 0.538311
vn 0.790288 0.356298 0.498494
vn 0.853959 0.331686 0.400923
vn 0.727054 -0.184822 0.661236
vn 0.767122 0.336722 0.546024
vn 0.560762 -0.451326 0.694155
vn 0.602257 0.708842 0.367192
vn 0.576718 0.719227 0.387439
vn 0.812511 0.274042 0.514516
vn 0.725906 0.644141 0.241126
vn 0.723749 -0.202745 0.659608
vn 0.332332 0.905705 0.263162
vn 0.406639 0.909782 0.083310
vn 0.681596 0.690516 0.242104
vn 0.291492 0.855900 0.427162
vn 0.630867 0.631507 0.450784
vn 0.711473 0.286600 0.641613
vn 0.389102 0.891643 0.231459
vn 0.860729 0.219364 0.459374
vn 0.793477 0.590043 0.149140
vn 0.764460 -0.202255 0.612122
vn 0.653207 0.727840 -0.208735
vn 0.662828 0.746931 -0.052459
vn 0.550641 0.802103 0.231138
vn 0.276259 0.846280 0.455512
vn 0.242789 0.896767 0.369950
vn -0.104953 0.851674 0.513455
vn -0.042069 0.838976 0.542539
vn 0.516475 0.847008 0.125822
vn 0.021052 0.918752 0.394273
vn -0.401314 0.758270 0.513784
vn -0.315182 0.816928 0.483001
vn -0.250815 0.922194 0.294364
vn -0.861828 0.466604 0.198829
vn -0.987270 0.038953 0.154212
vn -0.964565 0.027448 0.262415
vn -0.829425 0.514785 0.216912
vn -0.898713 0.395958 0.188499
vn -0.994391 0.058857 0.087877
vn -0.604896 0.716427 0.347610
vn -0.678257 0.620059 0.394329
vn -0.565669 0.793419 0.224734
vn -0.574911 0.810762 0.110194
vn -0.226475 0.970715 0.080132
vn -0.835286 0.497370 0.234350
vn 0.089640 0.985846 0.141680
vn -0.772984 0.479321 0.415628
vn -0.557477 0.801468 0.216492
vn -0.210729 0.975687 0.060228
vn 0.124863 0.992105 0.011696
vn -0.211063 0.959801 0.185023
vn 0.039468 0.988423 0.146504
vn -0.436074 0.787725 0.435120
vn -0.212991 0.818449 0.533644
vn 0.153709 0.828288 0.538806
vn -0.632347 0.010407 -0.774616
vn -0.857429 -0.001170 -0.514601
vn -0.696726 0.458617 -0.551582
vn -0.390147 0.478605 -0.786589
vn -0.627508 -0.236201 -0.741918
vn -0.819661 -0.185384 -0.542023
vn -0.392578 0.087656 -0.915532
vn -0.348721 -0.111530 -0.930567
vn -0.124837 0.420626 -0.898604
vn -0.727500 -0.182277 -0.661452
vn -0.924856 -0.047625 -0.377323
vn -0.962785 -0.077006 -0.259067
vn -0.543312 -0.265089 -0.796580
vn -0.984833 0.050977 -0.165845
vn -0.916339 0.383995 -0.113446
vn -0.320777 0.869336 -0.375975
vn -0.075452 0.821206 -0.565621
vn -0.651276 0.756011 -0.065474
vn -0.999467 0.029658 -0.013662
vn -0.980749 0.153995 0.120070
vn -0.990544 0.095974 -0.098041
vn -0.862651 0.437030 0.254634
vn -0.552046 0.787315 0.274556
vn -0.996988 -0.039093 -0.066991
vn -0.977729 0.201136 0.059920
vn -0.890525 -0.114893 -0.440187
vn -0.984619 0.123057 0.124030
vn 0.173377 -0.940502 -0.292228
vn 0.064133 -0.725762 -0.684950
vn -0.026709 -0.728443 -0.684585
vn 0.036898 -0.936402 -0.348983
vn -0.266583 -0.936659 -0.227163
vn -0.206835 -0.730253 -0.651115
vn 0.140225 -0.989396 -0.037850
vn -0.269928 -0.959668 0.078584
vn 0.113603 -0.991515 -0.063182
vn -0.080347 -0.996717 0.009947
vn 0.206427 -0.918294 0.337822
vn 0.296051 -0.924463 0.240253
vn -0.233193 -0.916595 -0.324770
vn 0.171015 -0.963300 0.206899
vn 0.527081 -0.608687 0.593031
vn 0.252121 -0.795244 0.551382
vn 0.545199 -0.612699 0.572152
vn -0.050730 -0.960296 -0.274332
vn -0.038383 -0.998603 0.036315
vn 0.273603 -0.917230 0.289535
vn -0.710762 -0.697747 0.089256
vn -0.712889 -0.634178 -0.299346
vn -0.502402 -0.422069 -0.754619
vn -0.284048 -0.919666 0.271165
vn -0.675665 -0.686520 0.268639
vn -0.227598 -0.823240 0.520072
vn -0.621617 -0.676978 0.394071
vn -0.262393 -0.704487 -0.659430
vn -0.019522 -0.767547 -0.640696
vn 0.488602 0.368209 -0.791006
vn 0.616237 0.604044 -0.505354
vn 0.498703 0.660521 -0.561255
vn 0.351386 0.462025 -0.814285
vn 0.499124 0.361766 -0.787401
vn 0.642436 0.591133 -0.487687
vn 0.187389 0.071868 -0.979653
vn 0.167340 0.075885 -0.982975
vn 0.119456 0.074805 -0.990017
vn 0.638993 0.754403 -0.150213
vn 0.581878 0.625182 -0.520159
vn 0.583868 0.785642 -0.204610
vn 0.438430 0.411275 -0.799145
vn 0.685464 -0.071124 0.724624
vn 0.248854 0.209155 0.945688
vn 0.235326 -0.129239 0.963286
vn 0.597314 -0.371024 0.711026
vn 0.260176 -0.481542 0.836914
vn 0.227577 0.544670 0.807182
vn -0.927772 0.262178 0.265521
vn -0.767181 0.506084 0.394097
vn 0.858439 -0.220848 0.462934
vn 0.939536 0.144915 0.310276
vn 0.616369 -0.619503 0.486112
vn 0.118528 0.066538 -0.990719
vn 0.080254 -0.404335 -0.911083
vn -0.203019 -0.344090 -0.916726
vn -0.092045 0.107930 -0.989888
vn 0.732212 0.126319 -0.669260
vn 0.735698 -0.344768 -0.582995
vn 0.141645 0.561412 -0.815324
vn 0.437916 0.658598 -0.611946
vn 0.125352 0.570845 -0.811432
vn 0.602048 -0.703066 -0.378467
vn 0.419163 -0.905714 -0.063130
vn -0.480733 0.761988 0.433901
vn -0.911860 0.337371 0.233864
vn -0.724635 0.552006 0.412544
vn 0.921397 -0.381240 0.075391
vn 0.996468 -0.071851 -0.043457
vn 0.717813 -0.665343 0.205095
vn 0.860626 0.504941 0.066004
vn 0.932919 0.314621 -0.175145
vn 0.614537 0.738322 -0.277895
vn 0.636284 0.700229 -0.323762
vn 0.349108 0.744525 -0.569040
vn -0.067336 -0.340345 -0.937887
vn -0.925456 -0.337829 0.171471
vn -0.938956 -0.343979 0.006370
vn -0.889901 -0.391140 0.234703
vn -0.531136 -0.713261 0.457333
vn -0.830578 -0.447553 0.331417
vn -0.796316 -0.427245 0.428185
vn -0.928769 0.040082 0.368485
vn -0.482237 -0.756461 0.441831
vn -0.116731 -0.772334 0.624399
vn -0.050041 -0.876147 0.479439
vn -0.014213 -0.801895 0.597296
vn -0.457889 -0.674382 0.579263
vn -0.746997 -0.314386 0.585796
vn -0.351311 -0.472407 0.808339
vn -0.522068 -0.157775 0.838184
vn -0.015317 -0.510036 0.860017
vn -0.144826 0.938331 0.313942
vn -0.164352 0.985556 0.040834
vn -0.457235 0.753578 0.472289
vn -0.150328 0.897415 0.414786
vn 0.159757 0.982177 0.099021
vn 0.104578 0.971041 -0.214810
vn 0.185117 0.949680 0.252665
vn 0.445149 0.894216 0.047118
vn 0.363158 0.926795 -0.095742
vn 0.503532 0.824015 -0.259719
vn 0.278312 0.874818 -0.396531
vn 0.463636 0.717915 -0.519268
vn -0.205536 -0.400004 -0.893169
vn -0.394748 -0.201453 -0.896432
vn -0.602469 -0.223188 -0.766302
vn -0.157078 -0.151607 -0.975880
vn -0.484532 -0.205782 -0.850225
vn -0.254085 -0.162833 -0.953376
vn -0.649142 -0.169433 -0.741558
vn -0.296057 -0.205294 -0.932848
vn -0.854573 -0.324243 -0.405673
vn 0.118240 0.097181 -0.988218
vn 0.043676 0.228669 -0.972524
vn 0.323109 0.525763 -0.786876
vn 0.124132 0.703396 -0.699875
vn -0.563153 0.482876 0.670589
vn -0.832509 0.077012 0.548633
vn -0.581390 0.135823 0.802208
vn -0.142066 -0.137569 0.980251
vn -0.233124 0.154870 0.960036
vn -0.278175 0.476493 0.834010
vn 0.310420 -0.641268 0.701723
vn 0.378771 -0.769814 0.513730
vn 0.368570 -0.738461 0.564652
s 1
g Nube:ZBrush_defualt_group
usemtl initialShadingGroup
f 1//1 158//2 189//3 188//4
f 1//1 159//5 42//6 158//2
f 1//1 136//7 2//8 159//5
f 1//1 188//4 187//9 136//7
f 2//8 195//10 3//11 159//5
f 2//8 5//12 6//13 195//10
f 2//8 136//7 137//14 5//12
f 3//11 161//15 20//16 4//17
f 3//11 195//10 14//18 161//15
f 3//11 4//17 42//6 159//5
f 4//17 145//19 43//20 42//6
f 4//17 20//16 146//21 145//19
f 5//12 54//22 111//23 6//13
f 5//12 137//14 46//24 54//22
f 6//13 111//23 175//25 200//26
f 6//13 200//26 80//27 195//10
f 7//28 78//29 77//30 8//31
f 7//28 80//27 81//32 78//29
f 7//28 14//18 195//10 80//27
f 7//28 8//31 13//33 14//18
f 8//31 77//30 76//34 160//35
f 8//31 160//35 12//36 13//33
f 9//37 120//38 121//39 117//40
f 9//37 74//41 196//42 120//38
f 9//37 10//43 75//44 74//41
f 9//37 117//40 11//45 10//43
f 10//43 11//45 12//36 160//35
f 10//43 160//35 76//34 75//44
f 11//45 15//46 16//47 12//36
f 11//45 117//40 118//48 15//46
f 12//36 16//47 17//49 13//33
f 13//33 17//49 161//15 14//18
f 15//46 118//48 119//50 116//51
f 15//46 116//51 18//52 16//47
f 16//47 18//52 162//53 17//49
f 17//49 162//53 20//16 161//15
f 18//52 211//54 19//55 162//53
f 18//52 116//51 183//56 211//54
f 19//55 146//21 20//16 162//53
f 19//55 143//57 209//58 146//21
f 19//55 211//54 183//56 143//57
f 21//59 23//60 24//61 133//62
f 21//59 95//63 22//64 23//60
f 21//59 206//65 173//66 95//63
f 21//59 133//62 130//67 206//65
f 22//64 97//68 99//69 25//70
f 22//64 95//63 94//71 97//68
f 22//64 25//70 26//72 23//60
f 23//60 26//72 27//73 24//61
f 24//61 135//74 134//75 133//62
f 24//61 27//73 202//76 135//74
f 25//70 45//77 44//78 26//72
f 25//70 99//69 28//79 45//77
f 26//72 44//78 50//80 27//73
f 27//73 50//80 66//81 202//76
f 28//79 150//82 196//42 179//83
f 28//79 99//69 98//84 150//82
f 28//79 179//83 194//85 45//77
f 29//86 89//87 90//88 164//89
f 29//86 33//90 203//91 89//87
f 29//86 163//92 34//93 33//90
f 29//86 164//89 30//94 163//92
f 30//94 32//95 193//96 31//97
f 30//94 164//89 37//98 32//95
f 30//94 31//97 36//99 163//92
f 31//97 201//100 141//101 36//99
f 31//97 193//96 180//102 201//100
f 32//95 37//98 87//103 210//104
f 32//95 210//104 79//105 193//96
f 33//90 34//93 153//106 152//107
f 33//90 152//107 112//108 203//91
f 34//93 163//92 36//99 35//109
f 34//93 35//109 61//110 153//106
f 35//109 36//99 141//101 138//111
f 35//109 138//111 62//112 61//110
f 37//98 91//113 49//114 87//103
f 37//98 164//89 90//88 91//113
f 38//115 39//116 106//117 107//118
f 38//115 166//119 40//120 39//116
f 38//115 165//121 100//122 166//119
f 38//115 107//118 108//123 165//121
f 39//116 200//26 175//25 106//117
f 39//116 40//120 168//124 200//26
f 40//120 167//125 169//126 168//124
f 40//120 166//119 102//127 167//125
f 41//128 43//20 129//129 154//130
f 41//128 158//2 42//6 43//20
f 41//128 198//131 189//3 158//2
f 41//128 154//130 190//132 198//131
f 43//20 145//19 144//133 129//129
f 44//78 51//134 67//135 50//80
f 44//78 45//77 194//85 51//134
f 46//24 52//136 53//137 54//22
f 46//24 180//102 181//138 52//136
f 46//24 137//14 201//100 180//102
f 47//139 48//140 57//141 192//142
f 47//139 157//143 156//144 48//140
f 47//139 208//145 56//146 157//143
f 47//139 192//142 110//147 208//145
f 48//140 156//144 155//148 49//114
f 48//140 49//114 91//113 57//141
f 49//114 155//148 88//149 87//103
f 50//80 67//135 68//150 66//81
f 51//134 70//151 71//152 67//135
f 51//134 194//85 179//83 70//151
f 52//136 176//153 177//154 53//137
f 52//136 181//138 197//155 176//153
f 53//137 55//156 111//23 54//22
f 53//137 177//154 178//157 55//156
f 55//156 174//158 175//25 111//23
f 55//156 178//157 207//159 174//158
f 56//146 207//159 178//157 157//143
f 56//146 109//160 174//158 207//159
f 56//146 208//145 110//147 109//160
f 57//141 199//161 108//123 192//142
f 57//141 91//113 90//88 199//161
f 58//162 151//163 153//106 61//110
f 58//162 196//42 150//82 151//163
f 58//162 59//164 120//38 196//42
f 58//162 61//110 62//112 59//164
f 59//164 62//112 63//165 60//166
f 59//164 60//166 121//39 120//38
f 60//166 124//167 122//168 121//39
f 60//166 63//165 64//169 124//167
f 62//112 138//111 139//170 63//165
f 63//165 139//170 140//171 64//169
f 64//169 140//171 147//172 65//173
f 64//169 65//173 125//174 124//167
f 65//173 205//175 186//176 125//174
f 65//173 147//172 191//177 205//175
f 66//81 68//150 69//178 86//179
f 66//81 86//179 135//74 202//76
f 67//135 71//152 72//180 68//150
f 68//150 72//180 73//181 69//178
f 69//178 85//182 182//183 86//179
f 69//178 73//181 83//184 85//182
f 70//151 74//41 75//44 71//152
f 70//151 179//83 196//42 74//41
f 71//152 75//44 76//34 72//180
f 72//180 76//34 77//30 73//181
f 73//181 77//30 78//29 83//184
f 78//29 81//32 82//185 83//184
f 79//105 88//149 197//155 181//138
f 79//105 210//104 87//103 88//149
f 79//105 181//138 180//102 193//96
f 80//27 200//26 168//124 81//32
f 81//32 168//124 169//126 82//185
f 82//185 84//186 85//182 83//184
f 82//185 169//126 204//187 84//186
f 84//186 132//188 182//183 85//182
f 84//186 204//187 105//189 132//188
f 86//179 182//183 134//75 135//74
f 88//149 155//148 176//153 197//155
f 89//87 113//190 199//161 90//88
f 89//87 203//91 112//108 113//190
f 92//191 113//190 112//108 115//192
f 92//191 170//193 199//161 113//190
f 92//191 93//194 171//195 170//193
f 92//191 115//192 96//196 93//194
f 93//194 96//196 97//68 94//71
f 93//194 94//71 172//197 171//195
f 94//71 95//63 173//66 172//197
f 96//196 98//84 99//69 97//68
f 96//196 115//192 114//198 98//84
f 98//84 114//198 151//163 150//82
f 100//122 101//199 102//127 166//119
f 100//122 171//195 172//197 101//199
f 100//122 165//121 170//193 171//195
f 101//199 103//200 104//201 102//127
f 101//199 172//197 173//66 103//200
f 102//127 104//201 105//189 167//125
f 103//200 130//67 131//202 104//201
f 103//200 173//66 206//65 130//67
f 104//201 131//202 132//188 105//189
f 105//189 204//187 169//126 167//125
f 106//117 109//160 110//147 107//118
f 106//117 175//25 174//158 109//160
f 107//118 110//147 192//142 108//123
f 108//123 199//161 170//193 165//121
f 112//108 152//107 114//198 115//192
f 114//198 152//107 153//106 151//163
f 116//51 119//50 184//203 183//56
f 117//40 121//39 122//168 118//48
f 118//48 122//168 123//204 119//50
f 119//50 123//204 185//205 184//203
f 122//168 124//167 125//174 123//204
f 123//204 125//174 186//176 185//205
f 126//206 191//177 190//132 154//130
f 126//206 186//176 205//175 191//177
f 126//206 127//207 185//205 186//176
f 126//206 154//130 129//129 127//207
f 127//207 129//129 144//133 128//208
f 127//207 128//208 184//203 185//205
f 128//208 144//133 209//58 143//57
f 128//208 143//57 183//56 184//203
f 130//67 133//62 134//75 131//202
f 131//202 134//75 182//183 132//188
f 136//7 187//9 201//100 137//14
f 138//111 141//101 142//209 139//170
f 139//170 142//209 148//210 140//171
f 140//171 148//210 149//211 147//172
f 141//101 201//100 187//9 142//209
f 142//209 187//9 188//4 148//210
f 144//133 145//19 146//21 209//58
f 147//172 149//211 190//132 191//177
f 148//210 188//4 189//3 149//211
f 149//211 189//3 198//131 190//132
f 155//148 156//144 177//154 176//153
f 156//144 157//143 178//157 177//154
